<?xml version="1.0" encoding="iso-8859-1"?>
<!-- Generator: Adobe Illustrator 19.0.0, SVG Export Plug-In . SVG Version: 6.00 Build 0)  -->
<svg version="1.1" id="Capa_1" xmlns="http://www.w3.org/2000/svg" xmlns:xlink="http://www.w3.org/1999/xlink" x="0px" y="0px"
	 viewBox="0 0 512.001 512.001" style="enable-background:new 0 0 512.001 512.001;" xml:space="preserve">
<path style="fill:#C60024;" d="M301.096,347.169c30.537-16.589,49.507-48.456,49.507-83.175V142.458
	c0-22.612-8.104-44.504-22.822-61.634c-12.557-14.608-29.076-24.864-47.276-29.736c4.332-5.393,6.924-12.227,6.924-19.661
	c0-16.809-13.267-30.587-29.886-31.387c-0.51-0.03-1.021-0.04-1.541-0.04c-17.329,0-31.427,14.098-31.427,31.427
	c0,7.434,2.591,14.268,6.924,19.651c-12.937,3.472-24.794,9.625-34.919,17.83c-21.442,17.349-35.179,43.874-35.179,73.55v121.536
	c0,29.676,13.737,56.201,35.179,73.54c14.428,11.686,32.348,19.22,51.918,20.761V496.18c-17.92-3.692-31.427-19.591-31.427-38.581
	v-24.073l-39.452,39.441l10.616,10.616l14.948-14.948c5.113,24.723,27.065,43.364,53.279,43.364c0.36,0,0.72,0,1.081-0.01
	c25.734-0.51,47.156-18.97,52.198-43.354l12.897,12.887l10.606-10.606l-37.39-37.39v24.073c0,19.311-13.978,35.419-32.348,38.751
	V358.285C276.673,357.235,289.53,353.453,301.096,347.169z M257.142,47.811c-0.378,0.03-0.755,0.044-1.141,0.044
	c-9.053,0-16.388-7.334-16.388-16.388c0-9.046,7.334-16.387,16.388-16.387c0.385,0,0.763,0.015,1.141,0.044
	c8.52,0.578,15.246,7.682,15.246,16.343C272.388,40.136,265.662,47.233,257.142,47.811z"/>
<path style="fill:#FF5050;" d="M321.707,86.047c-0.29-0.34-0.58-0.68-0.88-1.021c-16.439-18.56-39.742-28.355-63.284-28.816
	c-19.781-0.39-39.722,5.803-55.93,18.92c-1.741,1.411-3.422,2.872-5.033,4.402c-17.349,16.349-27.175,38.931-27.175,62.924v121.536
	c0,23.993,9.825,46.565,27.175,62.904c1.621,1.531,3.302,3.002,5.043,4.412c13.647,11.066,30.076,17.63,47.506,19l6.864,0.54
	l1.551-0.12l5.323-0.42c12.027-0.961,23.923-4.482,34.409-10.176c27.955-15.188,45.325-44.364,45.325-76.142V142.458
	C342.599,121.756,335.185,101.715,321.707,86.047z"/>
<circle style="fill:#DEFEFB;" cx="224.753" cy="278.302" r="16.059"/>
<path style="fill:#E81010;" d="M342.599,142.458v121.536c0,31.777-17.369,60.953-45.325,76.142
	c-10.486,5.693-22.382,9.215-34.409,10.176l-5.323,0.42V56.211c23.543,0.46,46.846,10.256,63.284,28.816
	c0.3,0.34,0.59,0.68,0.88,1.021C335.185,101.715,342.599,121.756,342.599,142.458z"/>
<path style="fill:#FF7373;" d="M196.579,79.533v247.365c-17.349-16.339-27.175-38.911-27.175-62.904V142.458
	C169.404,118.465,179.23,95.882,196.579,79.533z"/>
<rect x="169.403" y="177.056" style="fill:#DEFEFB;" width="173.194" height="52.979"/>
<rect x="257.541" y="177.056" style="fill:#ABFEF6;" width="85.056" height="52.979"/>
<rect x="169.403" y="177.056" style="fill:#FFFFFF;" width="27.175" height="52.979"/>
<g>
	<path style="fill:#020202;" d="M280.504,51.085c4.329-5.387,6.929-12.221,6.929-19.654C287.433,14.101,273.332,0,256.001,0
		c-17.331,0-31.432,14.101-31.432,31.431c0,7.431,2.597,14.263,6.925,19.65c-40.322,10.825-70.096,47.686-70.096,91.377v121.534
		c0,49.638,38.429,90.468,87.098,94.306v137.884c-17.917-3.694-31.429-19.591-31.429-38.584v-24.072l-39.447,39.446l10.612,10.613
		l14.951-14.951c5.115,24.723,27.061,43.367,53.278,43.367c26.216,0,48.163-18.643,53.278-43.368l12.893,12.893l10.611-10.613
		l-37.387-37.386v24.072c0,19.318-13.981,35.42-32.353,38.751V358.285c13.162-1.049,26.028-4.83,37.594-11.112
		c30.536-16.588,49.504-48.461,49.504-83.181V142.458c0-22.615-8.107-44.503-22.827-61.632
		C315.223,66.22,298.708,55.963,280.504,51.085z M239.578,31.431c0-9.056,7.368-16.423,16.424-16.423
		c9.056,0,16.423,7.367,16.423,16.423c0,9.057-7.367,16.424-16.423,16.424C246.946,47.855,239.578,40.488,239.578,31.431z
		 M256.001,62.863c23.227,0,45.239,10.113,60.392,27.745c7.079,8.236,12.331,17.785,15.538,28.006h-43.455v15.008h46.606
		c0.326,2.923,0.511,5.869,0.511,8.834v28.115H229.212v15.008h106.383v36.949H176.406v-36.948h32.103v-15.008h-32.103v-28.115
		C176.406,98.57,212.113,62.863,256.001,62.863z M293.936,333.984c-11.565,6.282-24.682,9.603-37.935,9.603
		c-43.889,0-79.594-35.706-79.594-79.595v-26.453h159.189v26.453C335.595,293.206,319.632,320.025,293.936,333.984z"/>
	<path style="fill:#020202;" d="M220.926,98.091l-9.321-11.762c-8.227,6.521-15.045,14.916-19.715,24.282l13.431,6.697
		C209.017,109.899,214.413,103.254,220.926,98.091z"/>
	<path style="fill:#020202;" d="M312.582,263.992c0,19.715-10.496,38.295-27.391,48.488l7.752,12.851
		c21.371-12.894,34.647-36.398,34.647-61.339V254.7h-15.008L312.582,263.992L312.582,263.992z"/>
	<path style="fill:#020202;" d="M224.757,253.569c-13.637,0-24.732,11.095-24.732,24.732c0,13.637,11.095,24.731,24.732,24.731
		c13.637,0,24.731-11.094,24.731-24.731C249.489,264.664,238.395,253.569,224.757,253.569z M224.757,288.024
		c-5.362,0-9.724-4.361-9.724-9.723c0-5.362,4.362-9.724,9.724-9.724c5.362,0,9.723,4.361,9.723,9.724
		C234.481,283.663,230.119,288.024,224.757,288.024z"/>
	<rect x="254.79" y="118.615" style="fill:#020202;" width="14.208" height="15.008"/>
</g>
<g>
</g>
<g>
</g>
<g>
</g>
<g>
</g>
<g>
</g>
<g>
</g>
<g>
</g>
<g>
</g>
<g>
</g>
<g>
</g>
<g>
</g>
<g>
</g>
<g>
</g>
<g>
</g>
<g>
</g>
</svg>
